# xmcd CD database file
#
# Track frame offsets:
#       150
#       32757
#       62591
#       97107
#       145499
#       179854
#       210831
#       245051
#       274161
#
# Disc length: 4260 seconds
#
# Revision: 1
# Processed by: cddbd v1.5.2PL0 Copyright (c) Steve Scherf et al.
# Submitted via: jack 3.1.1
#
DISCID=8b10a209
DTITLE=Jazz Orchestra Of The Concertgebouw - Silk Rush 
DYEAR=1900
DGENRE=Blues
TTITLE0=Silk Rush
TTITLE1=Here Comes The Sun
TTITLE2=Amsterdam
TTITLE3=Vienna Night Express
TTITLE4=The Ruler
TTITLE5=Have A Heart
TTITLE6=Circles
TTITLE7=M.m.
TTITLE8=The Secret Champ
EXTD=Featuring Jesse Van Ruller
EXTT0=
EXTT1=
EXTT2=
EXTT3=
EXTT4=
EXTT5=
EXTT6=
EXTT7=
EXTT8=
PLAYORDER=
